<svg xmlns:x="http://ns.adobe.com/Extensibility/1.0/" xmlns:i="http://ns.adobe.com/AdobeIllustrator/10.0/" xmlns:graph="http://ns.adobe.com/Graphs/1.0/" xmlns="http://www.w3.org/2000/svg" xmlns:xlink="http://www.w3.org/1999/xlink" xmlns:a="http://ns.adobe.com/AdobeSVGViewerExtensions/3.0/" version="1.1" x="0px" y="0px" viewBox="0 0 54 67.5" style="enable-background:new 0 0 54 54;" xml:space="preserve"><metadata><sfw xmlns="http://ns.adobe.com/SaveForWeb/1.0/"><slices/><sliceSourceBounds bottomLeftOrigin="true" width="1050" height="325.001" x="53" y="-562.001"/></sfw></metadata><g><g fill="#7F9CB2"><path d="M27,0C12.112,0,0,12.112,0,27s12.112,27,27,27s27-12.112,27-27S41.888,0,27,0z M27,52C13.215,52,2,40.785,2,27    S13.215,2,27,2s25,11.215,25,25S40.785,52,27,52z M44,26H10c-0.553,0-1,0.447-1,1c0,9.925,8.075,18,18,18s18-8.075,18-18    C45,26.447,44.553,26,44,26z M28.5,28h3v6h-3V28z M23.5,28h3v6h-3V28z M27,43c-8.486,0-15.451-6.642-15.969-15H21.5v7    c0,0.553,0.447,1,1,1h10c0.553,0,1-0.447,1-1v-7h9.469C42.451,36.358,35.486,43,27,43z M35,20c0.553,0,1-0.447,1-1v-6    c0-0.553-0.447-1-1-1s-1,0.447-1,1v6C34,19.553,34.447,20,35,20z M19,20c0.553,0,1-0.447,1-1v-6c0-0.553-0.447-1-1-1s-1,0.447-1,1    v6C18,19.553,18.447,20,19,20z"/></g></g></svg>